<svg id="Layer_1" data-name="Layer 1" xmlns="http://www.w3.org/2000/svg" xmlns:xlink="http://www.w3.org/1999/xlink" viewBox="0 0 1620 800"><defs><style>.cls-1{fill:url(#linear-gradient);}.cls-2{fill:none;stroke-linecap:round;stroke-linejoin:bevel;stroke-width:40px;stroke:url(#linear-gradient-2);}</style><linearGradient id="linear-gradient" x1="98.3" y1="406.35" x2="698.3" y2="406.35" gradientUnits="userSpaceOnUse"><stop offset="0" stop-color="#ed1c24"/><stop offset="0.23" stop-color="#ef3524"/><stop offset="0.49" stop-color="#f04a24"/><stop offset="0.75" stop-color="#f15624"/><stop offset="1" stop-color="#f15a24"/></linearGradient><linearGradient id="linear-gradient-2" x1="327" y1="485.5" x2="482" y2="485.5" xlink:href="#linear-gradient"/></defs><title>SiteLogo</title><path class="cls-1" d="M456,166,638.3,646.71H487L471.1,603.47H325.51l-15.86,43.24H158.3L340.64,166H456m0-60H340.64a60,60,0,0,0-56.1,38.72L102.2,625.43a60,60,0,0,0,56.1,81.28H309.65A60,60,0,0,0,366,667.37l1.43-3.9h61.78l1.42,3.89A60,60,0,0,0,487,706.71H638.3a60,60,0,0,0,56.1-81.28L512.06,144.71A60,60,0,0,0,456,106Z"/><path class="cls-2" d="M347,466s14,39,57,39,58-39,58-39"/><path d="M665.89,487.34c-2.95,22.3-4.9,46.59-4.72,52.57H606a162.34,162.34,0,0,1,.64-22.48c-10,13.89-26,27.09-63.49,27.09-46.74,0-65.3-31.14-65.3-58.68,0-54,47.58-70.58,99.8-73.52,14.72-1,31-1,41.69-1.26l.93-9.24c1.91-15.24-1.66-31.65-30.22-31.65-25.08,0-31.25,11.5-35.15,23.82h-57c5.62-32.65,27.78-63.68,94.84-63.58,61.91.11,90.08,26.94,83.55,75.19Zm-51.24-39.78c-10.12,0-22.25.6-33.6,1.36-30.3,2.33-45.11,11.61-45.11,30.34,0,12.87,8.72,23.07,27.94,23.07,36.1,0,46.65-24.87,50.33-51.11Z"/><path d="M731.5,520.68l-12.78,99.8H661.9l28.76-230c3.56-23.3,5.82-41.36,6.79-55.43h56.11c.23,4.68-.68,17.11-1.8,26.2,11.19-15.76,30.41-30.82,63.88-30.82,45.31,0,75.69,36,75.69,90.07,0,67.74-41.06,124-105.82,124C756.2,544.52,739.17,532.79,731.5,520.68Zm100.83-95.52c0-31.22-14.05-48.72-39.35-48.72-31.26,0-48.5,23.91-52.81,61.5-4.13,36.21,5.7,60.68,38.31,60.68C814.88,498.62,832.33,462.89,832.33,425.16Z"/><path d="M953.35,450.36a35.26,35.26,0,0,0-.57,6.31c.19,23.39,11.41,43.91,38.34,43.91,22.94,0,32-9.91,38.7-22.59h58.44c-10.69,30.13-37.36,66.53-100.44,66.53-63.87,0-92.26-42.71-92.26-94,0-57.79,33.05-120.11,110-120.11,66.49,0,90.87,43.32,90.87,90.11a116.63,116.63,0,0,1-3.49,29.84Zm86.92-36.47a22.31,22.31,0,0,0,.39-4.69c-.25-20-9.55-37.25-36.39-37.25-27.11,0-40.94,17.11-45.89,41.94Z"/><path d="M1109.58,393.62c2.58-20.06,5.14-40.36,7-58.59H1172a319.58,319.58,0,0,1-3,37.64c12.92-25.72,34-42.13,70.26-42l-7.18,55.58c-40.16-.25-67,17-73.2,69.42l-10.54,84.26h-57.17Z"/><path d="M1249.52,335h57.06l-26,204.88h-57Zm10.76-85.73h57.12L1311,300.2h-57.12Z"/><path d="M1351.86,477c2.85,17,15.53,26.32,38.63,26.32,21,0,30.6-8.07,30.6-21.09,0-12.79-9.89-18.67-39.47-26.12-58.81-14.73-71.71-34.57-71.71-60.88,0-34.56,26.6-64.85,86.07-64.85,63.32,0,86.55,32.93,86.92,62.56h-56.58c-1.32-10.05-7.45-22.23-32.85-22.23-16,0-26.54,6-26.54,17.87,0,10.41,9,15.05,38.69,22.59,59.65,14.93,73.75,36.21,73.75,65.48,0,41.41-35.1,67.84-93.31,67.84-57.12,0-89.85-25.62-91.17-67.49Z"/></svg>