<svg id="Layer_1" data-name="Layer 1" xmlns="http://www.w3.org/2000/svg" xmlns:xlink="http://www.w3.org/1999/xlink" viewBox="0 0 800 800"><defs><style>.cls-1{fill:url(#linear-gradient);}.cls-2{fill:#fff;}.cls-3{fill:none;stroke:#fff;stroke-linecap:round;stroke-linejoin:bevel;stroke-width:40px;}</style><linearGradient id="linear-gradient" x1="746.65" y1="749.15" x2="49.35" y2="51.85" gradientUnits="userSpaceOnUse"><stop offset="0" stop-color="#ed1c24"/><stop offset="0.23" stop-color="#ef3524"/><stop offset="0.49" stop-color="#f04a24"/><stop offset="0.75" stop-color="#f15624"/><stop offset="1" stop-color="#f15a24"/></linearGradient></defs><title>AppIcon</title><rect class="cls-1" x="26.02" y="29" width="743.96" height="743" rx="78.82"/><path class="cls-2" d="M459,168,641.3,648.71H490L474.1,605.47H328.51l-15.86,43.24H161.3L343.64,168H459m0-60H343.64a60,60,0,0,0-56.1,38.72L105.2,627.43a60,60,0,0,0,56.1,81.28H312.65A60,60,0,0,0,369,669.37l1.43-3.9h61.78l1.42,3.89A60,60,0,0,0,490,708.71H641.3a60,60,0,0,0,56.1-81.28L515.06,146.71A60,60,0,0,0,459,108Z"/><path class="cls-3" d="M350,468s14,39,57,39,58-39,58-39"/></svg>